<svg xmlns="http://www.w3.org/2000/svg" width="44" height="44" viewBox="0 0 44 44">
    <g id="Group_305" data-name="Group 305" transform="translate(-168.223 -39.869)">
        <g id="Group_307" data-name="Group 307" transform="translate(175.765 47.756)">
            <path id="Path_124" data-name="Path 124" d="M193.93,54.667H182.54l-5.776-10-1.021.59,5.776,10L175.8,65.166l1.021.59,5.721-9.909h11.39Z" transform="translate(-167.809 -41.049)" fill="#fff"/>
            <path id="Path_125" data-name="Path 125"
                  d="M198.161,55.648l-1.41-.474c-1.078-.365-1.233-1.243-.344-1.955l1.161-.927c.89-.711.686-1.271-.453-1.243l-1.486.036c-1.138.027-1.584-.746-.992-1.718l.775-1.271c.592-.972.21-1.427-.851-1.012l-1.384.542c-1.061.414-1.745-.16-1.519-1.275l.293-1.459c.224-1.115-.292-1.413-1.146-.661l-1.115.983c-.855.753-1.693.447-1.864-.678l-.223-1.47c-.171-1.125-.758-1.229-1.3-.23l-.712,1.307c-.546,1-1.439,1-1.984,0l-.713-1.307c-.545-1-1.131-.9-1.3.23l-.223,1.47c-.171,1.125-1.01,1.432-1.864.678l-1.115-.983c-.855-.752-1.37-.454-1.146.661l.293,1.459c.224,1.115-.46,1.689-1.519,1.275l-1.386-.542c-1.059-.415-1.442.04-.849,1.012l.775,1.271c.592.972.145,1.745-.992,1.718l-1.488-.036c-1.138-.027-1.341.532-.451,1.243l1.161.927c.89.711.734,1.59-.345,1.955l-1.409.474c-1.079.364-1.079.959,0,1.322l1.409.474c1.079.364,1.235,1.243.345,1.955l-1.161.927c-.89.712-.687,1.271.451,1.243l1.488-.036c1.137-.027,1.584.746.992,1.718l-.775,1.271c-.592.972-.21,1.427.849,1.012l1.386-.542c1.059-.414,1.744.16,1.519,1.275l-.293,1.459c-.224,1.115.29,1.413,1.146.661L179.5,67.4c.854-.753,1.693-.447,1.864.678l.223,1.47c.171,1.125.757,1.229,1.3.23l.713-1.307c.545-1,1.437-1,1.984,0l.712,1.307c.546,1,1.133.9,1.3-.23l.223-1.47c.171-1.125,1.009-1.432,1.864-.678l1.115.983c.854.752,1.37.454,1.146-.661l-.293-1.459c-.226-1.115.459-1.689,1.519-1.275l1.384.542c1.061.415,1.443-.04.851-1.012l-.775-1.271c-.592-.972-.147-1.745.992-1.718l1.486.036c1.138.027,1.343-.532.453-1.243l-1.161-.927c-.89-.712-.735-1.591.344-1.955l1.41-.474C199.24,56.606,199.24,56.011,198.161,55.648ZM184.6,67.075a10.766,10.766,0,1,1,10.766-10.766A10.766,10.766,0,0,1,184.6,67.075Z"
                  transform="translate(-170.223 -42.148)" fill="#fff"/>
        </g>
        <rect id="Rectangle_647" data-name="Rectangle 647" width="44" height="44" transform="translate(168.223 39.869)" fill="none"/>
    </g>
</svg>
